<mxfile host="app.diagrams.net" agent="Mozilla/5.0 (Windows NT 10.0; Win64; x64) AppleWebKit/537.36 (KHTML, like Gecko) Chrome/136.0.0.0 Safari/537.36" version="27.0.6">
  <diagram name="Sayfa -1" id="jkZNS3kq_cN3g6RIaCV0">
    <mxGraphModel dx="1226" dy="741" grid="1" gridSize="10" guides="1" tooltips="1" connect="1" arrows="1" fold="1" page="1" pageScale="1" pageWidth="827" pageHeight="1169" math="0" shadow="0">
      <root>
        <mxCell id="0" />
        <mxCell id="1" parent="0" />
        <mxCell id="CtyLUI4-Z-zY3WXZm9cc-1" value="Kullanıcı&lt;div&gt;&amp;nbsp;&lt;span style=&quot;background-color: transparent; color: light-dark(rgb(0, 0, 0), rgb(255, 255, 255));&quot;&gt;Kayıtları&lt;/span&gt;&lt;/div&gt;" style="whiteSpace=wrap;html=1;align=center;fillColor=#dae8fc;strokeColor=#6c8ebf;shadow=1;" parent="1" vertex="1">
          <mxGeometry x="14" y="330" width="100" height="40" as="geometry" />
        </mxCell>
        <mxCell id="CtyLUI4-Z-zY3WXZm9cc-2" value="Muhasebe&lt;div&gt;Kayıtları&lt;/div&gt;" style="whiteSpace=wrap;html=1;align=center;fillColor=#dae8fc;strokeColor=#6c8ebf;" parent="1" vertex="1">
          <mxGeometry x="714" y="330" width="100" height="40" as="geometry" />
        </mxCell>
        <mxCell id="CtyLUI4-Z-zY3WXZm9cc-3" value="İşletme&lt;div&gt;Kayıtları&lt;/div&gt;" style="whiteSpace=wrap;html=1;align=center;fillColor=#dae8fc;strokeColor=#6c8ebf;shadow=1;" parent="1" vertex="1">
          <mxGeometry x="494" y="330" width="100" height="40" as="geometry" />
        </mxCell>
        <mxCell id="CtyLUI4-Z-zY3WXZm9cc-5" value="İşletme Değerlendirme&lt;div&gt;Kayıtları&lt;/div&gt;" style="whiteSpace=wrap;html=1;align=center;fillColor=#dae8fc;strokeColor=#6c8ebf;shadow=1;" parent="1" vertex="1">
          <mxGeometry x="494" y="460" width="100" height="40" as="geometry" />
        </mxCell>
        <mxCell id="CtyLUI4-Z-zY3WXZm9cc-6" value="Kampanya&lt;div&gt;Kayıtları&lt;/div&gt;" style="whiteSpace=wrap;html=1;align=center;fillColor=#dae8fc;strokeColor=#6c8ebf;shadow=1;" parent="1" vertex="1">
          <mxGeometry x="254" y="525" width="100" height="40" as="geometry" />
        </mxCell>
        <mxCell id="vuS7PXIhXL-giFVFOb7E-2" value="Sürdürülebilirlik&lt;br&gt;&lt;div&gt;&lt;span style=&quot;background-color: transparent; color: light-dark(rgb(0, 0, 0), rgb(255, 255, 255));&quot;&gt;Kayıtları&lt;/span&gt;&amp;nbsp;&lt;/div&gt;" style="whiteSpace=wrap;html=1;align=center;fillColor=#dae8fc;strokeColor=#6c8ebf;shadow=1;" parent="1" vertex="1">
          <mxGeometry x="714" y="460" width="100" height="40" as="geometry" />
        </mxCell>
        <mxCell id="zDki0mUi_nNN_08VABFR-1" value="Sistem&lt;div&gt;Kayıtları&lt;/div&gt;" style="whiteSpace=wrap;html=1;align=center;fillColor=#dae8fc;strokeColor=#6c8ebf;shadow=1;" parent="1" vertex="1">
          <mxGeometry x="254" y="640" width="100" height="40" as="geometry" />
        </mxCell>
        <mxCell id="zDki0mUi_nNN_08VABFR-27" value="Ürün&amp;nbsp;&lt;div&gt;Kayıtları&lt;/div&gt;" style="whiteSpace=wrap;html=1;align=center;fillColor=#dae8fc;strokeColor=#6c8ebf;" parent="1" vertex="1">
          <mxGeometry x="254" y="330" width="100" height="40" as="geometry" />
        </mxCell>
        <mxCell id="zDki0mUi_nNN_08VABFR-33" value="" style="fontSize=12;html=1;endArrow=ERzeroToMany;startArrow=ERmandOne;rounded=0;exitX=0.5;exitY=0;exitDx=0;exitDy=0;" parent="1" source="zDki0mUi_nNN_08VABFR-27" edge="1">
          <mxGeometry width="100" height="100" relative="1" as="geometry">
            <mxPoint x="304.95" y="320" as="sourcePoint" />
            <mxPoint x="304" y="230" as="targetPoint" />
          </mxGeometry>
        </mxCell>
        <mxCell id="zDki0mUi_nNN_08VABFR-34" value="" style="fontSize=12;html=1;endArrow=ERzeroToMany;startArrow=ERmandOne;rounded=0;exitX=0.5;exitY=0;exitDx=0;exitDy=0;" parent="1" source="CtyLUI4-Z-zY3WXZm9cc-3" edge="1">
          <mxGeometry width="100" height="100" relative="1" as="geometry">
            <mxPoint x="544" y="325" as="sourcePoint" />
            <mxPoint x="364" y="210" as="targetPoint" />
            <Array as="points">
              <mxPoint x="544" y="210" />
            </Array>
          </mxGeometry>
        </mxCell>
        <mxCell id="zDki0mUi_nNN_08VABFR-35" value="" style="fontSize=12;html=1;endArrow=ERzeroToMany;startArrow=ERmandOne;rounded=0;entryX=0.5;entryY=1;entryDx=0;entryDy=0;" parent="1" edge="1" target="CtyLUI4-Z-zY3WXZm9cc-6">
          <mxGeometry width="100" height="100" relative="1" as="geometry">
            <mxPoint x="303.72" y="640" as="sourcePoint" />
            <mxPoint x="303.72" y="570" as="targetPoint" />
          </mxGeometry>
        </mxCell>
        <mxCell id="zDki0mUi_nNN_08VABFR-40" value="" style="fontSize=12;html=1;endArrow=ERzeroToMany;startArrow=ERmandOne;rounded=0;exitX=0.3;exitY=0;exitDx=0;exitDy=0;exitPerimeter=0;" parent="1" source="CtyLUI4-Z-zY3WXZm9cc-1" edge="1">
          <mxGeometry width="100" height="100" relative="1" as="geometry">
            <mxPoint x="44" y="150" as="sourcePoint" />
            <mxPoint x="244" y="210" as="targetPoint" />
            <Array as="points">
              <mxPoint x="44" y="210" />
            </Array>
          </mxGeometry>
        </mxCell>
        <mxCell id="zDki0mUi_nNN_08VABFR-41" value="" style="fontSize=12;html=1;endArrow=ERoneToMany;startArrow=ERmandOne;rounded=0;" parent="1" edge="1">
          <mxGeometry width="100" height="100" relative="1" as="geometry">
            <mxPoint x="594" y="349.52" as="sourcePoint" />
            <mxPoint x="714" y="349.52" as="targetPoint" />
          </mxGeometry>
        </mxCell>
        <mxCell id="zDki0mUi_nNN_08VABFR-42" value="" style="fontSize=12;html=1;endArrow=ERoneToMany;startArrow=ERmandOne;rounded=0;" parent="1" edge="1">
          <mxGeometry width="100" height="100" relative="1" as="geometry">
            <mxPoint x="543.52" y="370" as="sourcePoint" />
            <mxPoint x="543.52" y="460" as="targetPoint" />
          </mxGeometry>
        </mxCell>
        <mxCell id="zDki0mUi_nNN_08VABFR-43" value="" style="fontSize=12;html=1;endArrow=ERoneToMany;startArrow=ERmandOne;rounded=0;exitX=1;exitY=0.75;exitDx=0;exitDy=0;" parent="1" source="zDki0mUi_nNN_08VABFR-1" edge="1">
          <mxGeometry width="100" height="100" relative="1" as="geometry">
            <mxPoint x="364" y="615" as="sourcePoint" />
            <mxPoint x="543.52" y="500" as="targetPoint" />
            <Array as="points">
              <mxPoint x="544" y="670" />
            </Array>
          </mxGeometry>
        </mxCell>
        <mxCell id="zDki0mUi_nNN_08VABFR-44" value="" style="fontSize=12;html=1;endArrow=ERoneToMany;startArrow=ERmandOne;rounded=0;entryX=0;entryY=0.5;entryDx=0;entryDy=0;" parent="1" target="vuS7PXIhXL-giFVFOb7E-2" edge="1">
          <mxGeometry width="100" height="100" relative="1" as="geometry">
            <mxPoint x="584" y="370" as="sourcePoint" />
            <mxPoint x="714" y="487" as="targetPoint" />
            <Array as="points">
              <mxPoint x="584" y="387" />
              <mxPoint x="664" y="387" />
              <mxPoint x="664" y="480" />
            </Array>
          </mxGeometry>
        </mxCell>
        <mxCell id="Y_Pibl3nqQUiUnckIkG--1" value="" style="fontSize=12;html=1;endArrow=ERoneToMany;startArrow=ERmandOne;rounded=0;entryX=0.4;entryY=1;entryDx=0;entryDy=0;entryPerimeter=0;exitX=0;exitY=0.5;exitDx=0;exitDy=0;" parent="1" source="zDki0mUi_nNN_08VABFR-1" target="CtyLUI4-Z-zY3WXZm9cc-1" edge="1">
          <mxGeometry width="100" height="100" relative="1" as="geometry">
            <mxPoint x="244" y="610" as="sourcePoint" />
            <mxPoint x="54" y="380" as="targetPoint" />
            <Array as="points">
              <mxPoint x="54" y="660" />
            </Array>
          </mxGeometry>
        </mxCell>
        <mxCell id="Y_Pibl3nqQUiUnckIkG--2" value="" style="fontSize=12;html=1;endArrow=ERoneToMany;startArrow=ERmandOne;rounded=0;exitX=1;exitY=0.25;exitDx=0;exitDy=0;entryX=0.206;entryY=0.974;entryDx=0;entryDy=0;entryPerimeter=0;" parent="1" source="zDki0mUi_nNN_08VABFR-1" target="CtyLUI4-Z-zY3WXZm9cc-3" edge="1">
          <mxGeometry width="100" height="100" relative="1" as="geometry">
            <mxPoint x="418" y="600" as="sourcePoint" />
            <mxPoint x="514" y="380" as="targetPoint" />
            <Array as="points">
              <mxPoint x="444" y="650" />
              <mxPoint x="444" y="430" />
              <mxPoint x="514" y="430" />
            </Array>
          </mxGeometry>
        </mxCell>
        <mxCell id="Y_Pibl3nqQUiUnckIkG--3" value="Alır" style="text;html=1;align=center;verticalAlign=middle;whiteSpace=wrap;rounded=0;" parent="1" vertex="1">
          <mxGeometry x="124" y="330" width="40" height="10" as="geometry" />
        </mxCell>
        <mxCell id="Y_Pibl3nqQUiUnckIkG--5" value="Ekler" style="text;html=1;align=center;verticalAlign=middle;whiteSpace=wrap;rounded=0;" parent="1" vertex="1">
          <mxGeometry x="454" y="330" width="40" height="10" as="geometry" />
        </mxCell>
        <mxCell id="Y_Pibl3nqQUiUnckIkG--6" value="Aittir" style="text;html=1;align=center;verticalAlign=middle;whiteSpace=wrap;rounded=0;" parent="1" vertex="1">
          <mxGeometry x="354" y="350" width="40" height="10" as="geometry" />
        </mxCell>
        <mxCell id="Y_Pibl3nqQUiUnckIkG--9" value="Üretir" style="text;html=1;align=center;verticalAlign=middle;whiteSpace=wrap;rounded=0;" parent="1" vertex="1">
          <mxGeometry x="368" y="680" width="50" height="15" as="geometry" />
        </mxCell>
        <mxCell id="Y_Pibl3nqQUiUnckIkG--10" value="Aittir" style="text;html=1;align=center;verticalAlign=middle;whiteSpace=wrap;rounded=0;" parent="1" vertex="1">
          <mxGeometry x="534" y="400" width="40" height="10" as="geometry" />
        </mxCell>
        <mxCell id="Y_Pibl3nqQUiUnckIkG--12" value="Aittir" style="text;html=1;align=center;verticalAlign=middle;whiteSpace=wrap;rounded=0;" parent="1" vertex="1">
          <mxGeometry x="674" y="350" width="40" height="10" as="geometry" />
        </mxCell>
        <mxCell id="Y_Pibl3nqQUiUnckIkG--13" value="Aittir" style="text;html=1;align=center;verticalAlign=middle;whiteSpace=wrap;rounded=0;" parent="1" vertex="1">
          <mxGeometry x="304" y="240" width="40" height="10" as="geometry" />
        </mxCell>
        <mxCell id="Y_Pibl3nqQUiUnckIkG--15" value="Geribildirimde&amp;nbsp;&lt;div&gt;Bulunur&lt;/div&gt;" style="text;html=1;align=center;verticalAlign=middle;whiteSpace=wrap;rounded=0;" parent="1" vertex="1">
          <mxGeometry x="44" y="295" width="70" height="20" as="geometry" />
        </mxCell>
        <mxCell id="Y_Pibl3nqQUiUnckIkG--16" value="Oluşturulur" style="text;html=1;align=center;verticalAlign=middle;whiteSpace=wrap;rounded=0;" parent="1" vertex="1">
          <mxGeometry x="324" y="570" width="40" height="10" as="geometry" />
        </mxCell>
        <mxCell id="Y_Pibl3nqQUiUnckIkG--17" value="Uygulanır" style="text;html=1;align=center;verticalAlign=middle;whiteSpace=wrap;rounded=0;" parent="1" vertex="1">
          <mxGeometry x="314" y="510" width="40" height="10" as="geometry" />
        </mxCell>
        <mxCell id="Y_Pibl3nqQUiUnckIkG--19" value="" style="fontSize=12;html=1;endArrow=ERoneToMany;startArrow=ERmandOne;rounded=0;entryX=1;entryY=0.5;entryDx=0;entryDy=0;" parent="1" target="zDki0mUi_nNN_08VABFR-27" edge="1">
          <mxGeometry width="100" height="100" relative="1" as="geometry">
            <mxPoint x="494" y="349.62" as="sourcePoint" />
            <mxPoint x="394" y="349.62" as="targetPoint" />
          </mxGeometry>
        </mxCell>
        <mxCell id="Y_Pibl3nqQUiUnckIkG--20" value="Aittir" style="text;html=1;align=center;verticalAlign=middle;whiteSpace=wrap;rounded=0;" parent="1" vertex="1">
          <mxGeometry x="194" y="190" width="40" height="10" as="geometry" />
        </mxCell>
        <mxCell id="Y_Pibl3nqQUiUnckIkG--22" value="Aittir" style="text;html=1;align=center;verticalAlign=middle;whiteSpace=wrap;rounded=0;" parent="1" vertex="1">
          <mxGeometry x="214" y="360" width="40" height="10" as="geometry" />
        </mxCell>
        <mxCell id="Y_Pibl3nqQUiUnckIkG--25" value="Değerlendirilir" style="text;html=1;align=center;verticalAlign=middle;whiteSpace=wrap;rounded=0;" parent="1" vertex="1">
          <mxGeometry x="234" y="305" width="50" height="10" as="geometry" />
        </mxCell>
        <mxCell id="Y_Pibl3nqQUiUnckIkG--30" value="Aittir" style="text;html=1;align=center;verticalAlign=middle;whiteSpace=wrap;rounded=0;" parent="1" vertex="1">
          <mxGeometry x="377.5" y="190" width="40" height="10" as="geometry" />
        </mxCell>
        <mxCell id="Y_Pibl3nqQUiUnckIkG--33" value="Talep Eder" style="text;html=1;align=center;verticalAlign=middle;whiteSpace=wrap;rounded=0;" parent="1" vertex="1">
          <mxGeometry x="584" y="330" width="80" height="10" as="geometry" />
        </mxCell>
        <mxCell id="Y_Pibl3nqQUiUnckIkG--35" value="Kapsar" style="text;html=1;align=center;verticalAlign=middle;whiteSpace=wrap;rounded=0;" parent="1" vertex="1">
          <mxGeometry x="254" y="410" width="40" height="10" as="geometry" />
        </mxCell>
        <mxCell id="8I1euwkjah-UxaOoS2-G-1" value="Aittir" style="text;html=1;align=center;verticalAlign=middle;whiteSpace=wrap;rounded=0;" parent="1" vertex="1">
          <mxGeometry x="64" y="380" width="40" height="10" as="geometry" />
        </mxCell>
        <mxCell id="8I1euwkjah-UxaOoS2-G-3" value="Oluşturur" style="text;html=1;align=center;verticalAlign=middle;whiteSpace=wrap;rounded=0;" parent="1" vertex="1">
          <mxGeometry x="370.5" y="630" width="45" height="20" as="geometry" />
        </mxCell>
        <mxCell id="8I1euwkjah-UxaOoS2-G-4" value="Oluşturur" style="text;html=1;align=center;verticalAlign=middle;whiteSpace=wrap;rounded=0;" parent="1" vertex="1">
          <mxGeometry x="194" y="640" width="60" height="20" as="geometry" />
        </mxCell>
        <mxCell id="8I1euwkjah-UxaOoS2-G-5" value="Aittir" style="text;html=1;align=center;verticalAlign=middle;whiteSpace=wrap;rounded=0;" parent="1" vertex="1">
          <mxGeometry x="534" y="500" width="60" height="30" as="geometry" />
        </mxCell>
        <mxCell id="8I1euwkjah-UxaOoS2-G-8" value="Aittir" style="text;html=1;align=center;verticalAlign=middle;whiteSpace=wrap;rounded=0;" parent="1" vertex="1">
          <mxGeometry x="664" y="470" width="40" height="10" as="geometry" />
        </mxCell>
        <mxCell id="8I1euwkjah-UxaOoS2-G-9" value="Talep eder" style="text;html=1;align=center;verticalAlign=middle;whiteSpace=wrap;rounded=0;" parent="1" vertex="1">
          <mxGeometry x="594" y="375" width="60" height="10" as="geometry" />
        </mxCell>
        <mxCell id="8I1euwkjah-UxaOoS2-G-11" value="Kullanıcı Geri Bildirim Değerlendirme&lt;div&gt;Kayıtları&lt;/div&gt;" style="whiteSpace=wrap;html=1;align=center;fillColor=#dae8fc;strokeColor=#6c8ebf;" parent="1" vertex="1">
          <mxGeometry x="244" y="180" width="120" height="50" as="geometry" />
        </mxCell>
        <mxCell id="8I1euwkjah-UxaOoS2-G-23" value="Aittir" style="text;html=1;align=center;verticalAlign=middle;whiteSpace=wrap;rounded=0;" parent="1" vertex="1">
          <mxGeometry x="474" y="380" width="40" height="10" as="geometry" />
        </mxCell>
        <mxCell id="8I1euwkjah-UxaOoS2-G-24" value="Değerlendirilir" style="text;html=1;align=center;verticalAlign=middle;whiteSpace=wrap;rounded=0;" parent="1" vertex="1">
          <mxGeometry x="484" y="300" width="50" height="10" as="geometry" />
        </mxCell>
        <mxCell id="8I1euwkjah-UxaOoS2-G-26" value="" style="fontSize=12;html=1;endArrow=ERzeroToMany;startArrow=ERmandOne;rounded=0;" parent="1" edge="1">
          <mxGeometry width="100" height="100" relative="1" as="geometry">
            <mxPoint x="114" y="349.2" as="sourcePoint" />
            <mxPoint x="254" y="349.2" as="targetPoint" />
          </mxGeometry>
        </mxCell>
        <mxCell id="6ifBcZqbHHl5bCH659nJ-1" value="ÜrünKampanya" style="shape=associativeEntity;whiteSpace=wrap;html=1;align=center;fillColor=#dae8fc;strokeColor=#6c8ebf;" vertex="1" parent="1">
          <mxGeometry x="254" y="430" width="100" height="40" as="geometry" />
        </mxCell>
        <mxCell id="6ifBcZqbHHl5bCH659nJ-5" value="" style="fontSize=12;html=1;endArrow=ERzeroToMany;startArrow=ERmandOne;rounded=0;" edge="1" parent="1">
          <mxGeometry width="100" height="100" relative="1" as="geometry">
            <mxPoint x="303.35" y="370" as="sourcePoint" />
            <mxPoint x="303.35" y="430" as="targetPoint" />
          </mxGeometry>
        </mxCell>
        <mxCell id="6ifBcZqbHHl5bCH659nJ-6" value="Sahiptir" style="text;html=1;align=center;verticalAlign=middle;whiteSpace=wrap;rounded=0;" vertex="1" parent="1">
          <mxGeometry x="314" y="375" width="40" height="10" as="geometry" />
        </mxCell>
        <mxCell id="6ifBcZqbHHl5bCH659nJ-7" value="Aittir" style="text;html=1;align=center;verticalAlign=middle;whiteSpace=wrap;rounded=0;" vertex="1" parent="1">
          <mxGeometry x="264" y="475" width="40" height="10" as="geometry" />
        </mxCell>
        <mxCell id="6ifBcZqbHHl5bCH659nJ-10" value="Sahiptir" style="text;html=1;align=center;verticalAlign=middle;whiteSpace=wrap;rounded=0;" vertex="1" parent="1">
          <mxGeometry x="254" y="620" width="40" height="10" as="geometry" />
        </mxCell>
        <mxCell id="6ifBcZqbHHl5bCH659nJ-11" value="" style="fontSize=12;html=1;endArrow=ERoneToMany;startArrow=ERmandOne;rounded=0;" edge="1" parent="1">
          <mxGeometry width="100" height="100" relative="1" as="geometry">
            <mxPoint x="304" y="525" as="sourcePoint" />
            <mxPoint x="304" y="470" as="targetPoint" />
            <Array as="points">
              <mxPoint x="304" y="490" />
            </Array>
          </mxGeometry>
        </mxCell>
      </root>
    </mxGraphModel>
  </diagram>
</mxfile>
